<svg width="17" height="13" viewBox="0 0 17 13" fill="none" xmlns="http://www.w3.org/2000/svg">
<path d="M1.42416 12.5016H3.96962V6.3198L0.333252 3.59253V11.4107C0.333252 12.0143 0.822343 12.5016 1.42416 12.5016Z" fill="#4285F4"/>
<path d="M12.6968 12.5016H15.2422C15.8459 12.5016 16.3331 12.0125 16.3331 11.4107V3.59253L12.6968 6.3198" fill="#34A853"/>
<path d="M12.6968 1.59254V6.31981L16.3331 3.59254V2.13799C16.3331 0.788903 14.7931 0.0198117 13.715 0.828903" fill="#FBBC04"/>
<path d="M3.96948 6.3198V1.59253L8.33312 4.86526L12.6968 1.59253V6.3198L8.33312 9.59253" fill="#EA4335"/>
<path d="M0.333252 2.13799V3.59254L3.96962 6.31981V1.59254L2.95143 0.828903C1.87143 0.0198117 0.333252 0.788903 0.333252 2.13799Z" fill="#C5221F"/>
</svg>
