<svg width="16" height="17" viewBox="0 0 16 17" fill="none" xmlns="http://www.w3.org/2000/svg">
<path d="M14.8147 0.501193H1.18066C0.536287 0.493921 0.00786419 1.01009 0 1.65446V15.3453C0.00759494 15.99 0.535975 16.5067 1.18066 16.4999H14.8147C15.4606 16.5079 15.9911 15.9913 16 15.3453V1.65348C15.9908 1.00783 15.4603 0.49169 14.8147 0.500101" fill="#0A66C2"/>
<path d="M11.2621 14.133H13.6328L13.6338 9.94466C13.6338 7.88853 13.1908 6.30803 10.788 6.30803C9.86943 6.27393 9.00656 6.74784 8.5425 7.54131H8.51064V6.49794H6.23477V14.1327H8.60547V10.3558C8.60547 9.35988 8.79439 8.39528 10.0291 8.39528C11.2463 8.39528 11.2621 9.53497 11.2621 10.4203V14.133Z" fill="white"/>
<path d="M2.18384 4.07878C2.18397 4.8386 2.80003 5.45445 3.55983 5.45431C3.9247 5.45425 4.2746 5.30924 4.53256 5.05118C4.79052 4.79313 4.9354 4.44317 4.93533 4.07829C4.93519 3.31847 4.31914 2.70262 3.55934 2.70276C2.79953 2.7029 2.1837 3.31896 2.18384 4.07878Z" fill="white"/>
<path d="M2.37201 14.133H4.74518V6.49794H2.37201V14.133Z" fill="white"/>
</svg>
