<svg width="101" height="47" viewBox="0 0 101 47" fill="none" xmlns="http://www.w3.org/2000/svg">
<path d="M2.12598 9H3.36696C7.25362 9 10.3961 12.1663 10.3668 16.0529L10.188 39.7112" stroke="#56B855" stroke-width="3.7" stroke-linecap="round"/>
<path d="M2.12598 21.8125L2 39.8125" stroke="#56B855" stroke-width="3.7" stroke-linecap="round"/>
<path d="M26.108 40.308C25.0067 40.308 24.0267 40.0373 23.168 39.496C22.328 38.936 21.768 38.1987 21.488 37.284L21.796 36.36V38.096C21.796 38.7867 21.6187 39.3187 21.264 39.692C20.9093 40.0653 20.396 40.252 19.724 40.252C19.052 40.252 18.5293 40.0653 18.156 39.692C17.8013 39.3187 17.624 38.7867 17.624 38.096V22.164C17.624 21.4547 17.8013 20.9227 18.156 20.568C18.5293 20.1947 19.0613 20.008 19.752 20.008C20.424 20.008 20.9373 20.1947 21.292 20.568C21.6653 20.9227 21.852 21.4547 21.852 22.164V28.8H21.516C21.8147 27.96 22.384 27.2787 23.224 26.756C24.064 26.2333 25.0253 25.972 26.108 25.972C27.3213 25.972 28.376 26.2613 29.272 26.84C30.168 27.4187 30.868 28.24 31.372 29.304C31.876 30.368 32.128 31.6373 32.128 33.112C32.128 34.5867 31.876 35.8653 31.372 36.948C30.868 38.0307 30.1587 38.8613 29.244 39.44C28.348 40.0187 27.3027 40.308 26.108 40.308ZM24.848 37.144C25.4453 37.144 25.968 36.9947 26.416 36.696C26.8827 36.3973 27.2373 35.9587 27.48 35.38C27.7413 34.7827 27.872 34.0267 27.872 33.112C27.872 31.7493 27.592 30.7507 27.032 30.116C26.472 29.4627 25.744 29.136 24.848 29.136C24.2507 29.136 23.7187 29.276 23.252 29.556C22.804 29.836 22.4493 30.2747 22.188 30.872C21.9267 31.4507 21.796 32.1973 21.796 33.112C21.796 34.4747 22.076 35.492 22.636 36.164C23.196 36.8173 23.9333 37.144 24.848 37.144ZM36.8418 40.224C36.1512 40.224 35.6192 40.028 35.2458 39.636C34.8912 39.2253 34.7138 38.656 34.7138 37.928V28.352C34.7138 27.6053 34.8912 27.036 35.2458 26.644C35.6192 26.2333 36.1512 26.028 36.8418 26.028C37.5138 26.028 38.0272 26.2333 38.3818 26.644C38.7552 27.036 38.9418 27.6053 38.9418 28.352V37.928C38.9418 38.656 38.7645 39.2253 38.4098 39.636C38.0552 40.028 37.5325 40.224 36.8418 40.224ZM36.8418 23.732C36.0578 23.732 35.4512 23.5547 35.0218 23.2C34.6112 22.8267 34.4058 22.304 34.4058 21.632C34.4058 20.9413 34.6112 20.4187 35.0218 20.064C35.4512 19.6907 36.0578 19.504 36.8418 19.504C37.6258 19.504 38.2232 19.6907 38.6338 20.064C39.0445 20.4187 39.2498 20.9413 39.2498 21.632C39.2498 22.304 39.0445 22.8267 38.6338 23.2C38.2232 23.5547 37.6258 23.732 36.8418 23.732ZM44.39 40.252C43.6807 40.252 43.1394 40.0653 42.766 39.692C42.3927 39.3187 42.206 38.7867 42.206 38.096V28.156C42.206 27.4653 42.3834 26.9427 42.738 26.588C43.1114 26.2147 43.6247 26.028 44.278 26.028C44.95 26.028 45.4634 26.2147 45.818 26.588C46.1727 26.9427 46.35 27.4653 46.35 28.156V29.612H46.07C46.294 28.492 46.7887 27.624 47.554 27.008C48.3194 26.392 49.3087 26.0467 50.522 25.972C50.9887 25.9347 51.3434 26.056 51.586 26.336C51.8474 26.5973 51.9874 27.036 52.006 27.652C52.0434 28.2307 51.922 28.688 51.642 29.024C51.3807 29.36 50.9327 29.5653 50.298 29.64L49.654 29.696C48.59 29.7893 47.7967 30.0973 47.274 30.62C46.77 31.1427 46.518 31.8987 46.518 32.888V38.096C46.518 38.7867 46.3314 39.3187 45.958 39.692C45.6034 40.0653 45.0807 40.252 44.39 40.252ZM58.7011 40.308C57.0398 40.308 55.7984 39.8507 54.9771 38.936C54.1558 38.0027 53.7451 36.6213 53.7451 34.792V22.164C53.7451 21.4547 53.9224 20.9227 54.2771 20.568C54.6504 20.1947 55.1824 20.008 55.8731 20.008C56.5451 20.008 57.0584 20.1947 57.4131 20.568C57.7864 20.9227 57.9731 21.4547 57.9731 22.164V34.624C57.9731 35.3893 58.1318 35.9587 58.4491 36.332C58.7851 36.6867 59.2238 36.864 59.7651 36.864C59.9144 36.864 60.0544 36.8547 60.1851 36.836C60.3158 36.8173 60.4558 36.808 60.6051 36.808C60.9038 36.7707 61.1091 36.864 61.2211 37.088C61.3518 37.2933 61.4171 37.7133 61.4171 38.348C61.4171 38.908 61.3051 39.3373 61.0811 39.636C60.8571 39.916 60.5118 40.1027 60.0451 40.196C59.8584 40.2147 59.6438 40.2333 59.4011 40.252C59.1584 40.2893 58.9251 40.308 58.7011 40.308ZM65.1973 40.224C64.5066 40.224 63.9746 40.028 63.6013 39.636C63.2466 39.2253 63.0693 38.656 63.0693 37.928V28.352C63.0693 27.6053 63.2466 27.036 63.6013 26.644C63.9746 26.2333 64.5066 26.028 65.1973 26.028C65.8693 26.028 66.3826 26.2333 66.7373 26.644C67.1106 27.036 67.2973 27.6053 67.2973 28.352V37.928C67.2973 38.656 67.12 39.2253 66.7653 39.636C66.4106 40.028 65.888 40.224 65.1973 40.224ZM65.1973 23.732C64.4133 23.732 63.8066 23.5547 63.3773 23.2C62.9666 22.8267 62.7613 22.304 62.7613 21.632C62.7613 20.9413 62.9666 20.4187 63.3773 20.064C63.8066 19.6907 64.4133 19.504 65.1973 19.504C65.9813 19.504 66.5786 19.6907 66.9893 20.064C67.4 20.4187 67.6053 20.9413 67.6053 21.632C67.6053 22.304 67.4 22.8267 66.9893 23.2C66.5786 23.5547 65.9813 23.732 65.1973 23.732ZM72.6895 40.252C71.9988 40.252 71.4668 40.0653 71.0935 39.692C70.7388 39.3187 70.5615 38.7867 70.5615 38.096V28.156C70.5615 27.4653 70.7388 26.9427 71.0935 26.588C71.4668 26.2147 71.9802 26.028 72.6335 26.028C73.3055 26.028 73.8188 26.2147 74.1735 26.588C74.5282 26.9427 74.7055 27.4653 74.7055 28.156V29.752L74.3975 28.828C74.8268 27.9133 75.4615 27.2133 76.3015 26.728C77.1602 26.224 78.1308 25.972 79.2135 25.972C80.3148 25.972 81.2202 26.1867 81.9295 26.616C82.6388 27.0267 83.1708 27.6613 83.5255 28.52C83.8802 29.36 84.0575 30.4333 84.0575 31.74V38.096C84.0575 38.7867 83.8708 39.3187 83.4975 39.692C83.1428 40.0653 82.6202 40.252 81.9295 40.252C81.2575 40.252 80.7348 40.0653 80.3615 39.692C80.0068 39.3187 79.8295 38.7867 79.8295 38.096V31.936C79.8295 30.984 79.6522 30.3027 79.2975 29.892C78.9615 29.4627 78.4388 29.248 77.7295 29.248C76.8335 29.248 76.1148 29.528 75.5735 30.088C75.0508 30.648 74.7895 31.3947 74.7895 32.328V38.096C74.7895 39.5333 74.0895 40.252 72.6895 40.252ZM89.3418 40.252C88.6512 40.252 88.1192 40.0653 87.7458 39.692C87.3912 39.3187 87.2138 38.7867 87.2138 38.096V22.164C87.2138 21.4547 87.3912 20.9227 87.7458 20.568C88.1192 20.1947 88.6512 20.008 89.3418 20.008C90.0138 20.008 90.5272 20.1947 90.8818 20.568C91.2552 20.9227 91.4418 21.4547 91.4418 22.164V31.936H91.4978L95.5578 27.428C95.9685 26.9613 96.3418 26.616 96.6778 26.392C97.0325 26.1493 97.4992 26.028 98.0778 26.028C98.6565 26.028 99.0952 26.1773 99.3938 26.476C99.7112 26.7747 99.8698 27.1387 99.8698 27.568C99.8885 27.9787 99.7112 28.3987 99.3378 28.828L95.0538 33.616V32.02L99.8138 37.508C100.169 37.9373 100.318 38.3667 100.262 38.796C100.225 39.2253 100.038 39.58 99.7018 39.86C99.3658 40.1213 98.9365 40.252 98.4138 40.252C97.7792 40.252 97.2658 40.1307 96.8738 39.888C96.5005 39.6453 96.1178 39.272 95.7258 38.768L91.4978 34.064H91.4418V38.096C91.4418 39.5333 90.7418 40.252 89.3418 40.252Z" fill="#56B855"/>
</svg>
