<svg width="20" height="19" viewBox="0 0 20 19" fill="none" xmlns="http://www.w3.org/2000/svg">
<path d="M8.28585 6.63558V6.5196C8.28585 4.56166 6.83472 4.23257 4.9317 3.77019C5.30983 3.3119 5.76505 2.91249 6.28005 2.58715C6.29962 2.5766 10.6962 -0.790313 15.6386 1.94403C16.5208 2.42994 17.2537 3.11609 17.7677 3.93725C18.2817 4.75841 18.5596 5.68729 18.5751 6.63558H8.28585ZM18.5637 7.97827C18.563 8.2324 18.4533 8.47593 18.2585 8.65548C18.0637 8.83503 17.7997 8.93597 17.5245 8.93617H6.88448C6.84316 8.93617 6.80353 8.921 6.77431 8.89403C6.7451 8.86705 6.72868 8.83047 6.72868 8.79232V7.64241C6.7289 7.60433 6.74538 7.56786 6.77455 7.54093C6.80372 7.51399 6.84323 7.49877 6.88448 7.49858H18.5645V7.97827H18.5637ZM7.35106 9.96634C7.35106 12.0388 4.1527 12.0388 1.44376 12.099C1.43316 12.0862 1.42174 4.38017 1.44376 4.35306C2.2407 4.3764 2.96341 4.3749 3.46507 4.43816C5.71232 4.72055 7.35106 4.94195 7.35106 6.5196V6.63558H6.88448C6.59537 6.63597 6.31822 6.74217 6.11379 6.93091C5.90936 7.11964 5.79432 7.3755 5.79389 7.64241V8.79232C5.79432 9.05923 5.90936 9.31509 6.11379 9.50383C6.31822 9.69256 6.59537 9.79877 6.88448 9.79917H7.35188V9.96634H7.35106ZM19.4927 7.00758C19.5501 5.84907 19.2666 4.69783 18.6725 3.67601C18.0784 2.65419 17.1957 1.79991 16.1182 1.20378C10.8292 -1.72335 6.16667 1.56977 5.75882 1.87174C5.02361 2.32837 4.39599 2.91751 3.9137 3.60377C3.2383 3.54654 2.26599 3.50964 1.45845 3.4878C0.920901 3.4878 0.5 3.95093 0.5 4.54208V11.907C0.5 12.4974 0.920901 12.9612 1.46008 12.9612H1.47965C1.90953 12.9522 2.49112 12.9372 3.05885 12.9116C3.07108 13.6593 2.94465 15.1255 3.72201 15.9577C4.47001 16.7589 5.73924 16.6234 7.20913 16.466L7.55254 16.4306C7.72057 16.6603 7.76136 17.6196 7.63411 18.5135C7.62218 18.6252 7.65781 18.7367 7.73344 18.8245C7.80908 18.9123 7.91877 18.9694 8.03927 18.9838C8.15976 18.9982 8.2816 18.9687 8.37894 18.9016C8.47629 18.8345 8.5415 18.735 8.56074 18.6242C8.63334 18.1114 8.82177 16.3892 8.19449 15.7988C7.8519 15.4764 7.49299 15.5676 7.10064 15.609C5.84446 15.743 4.85257 15.8492 4.42841 15.3944C3.89413 14.8236 4.00588 13.5012 3.99119 12.8596C6.20337 12.7007 8.28422 12.0094 8.28422 9.96634V9.79917H17.4347C17.0408 10.4159 16.6525 10.9574 16.3393 11.3934C16.026 11.8294 15.7829 12.172 15.6369 12.4334C15.0333 13.517 15.2544 17.7545 15.3049 18.5926C15.3116 18.7027 15.3637 18.8062 15.4504 18.882C15.5372 18.9578 15.6521 19 15.7715 19H15.7968C15.9201 18.9938 16.0357 18.9428 16.1184 18.8581C16.2011 18.7734 16.2441 18.662 16.2381 18.5482C16.1264 16.6972 16.0913 13.5087 16.4681 12.831C16.5913 12.6118 16.8295 12.2895 17.1207 11.8731C17.5701 11.227 18.6754 9.52052 19.2105 8.47001C19.4471 8.00688 19.4985 7.03093 19.4952 7.01135L19.4927 7.00758Z" fill="#56B855"/>
</svg>
