<svg width="57" height="16" viewBox="0 0 57 16" fill="none" xmlns="http://www.w3.org/2000/svg">
<path d="M1 7C0.447715 7 0 7.44772 0 8C0 8.55228 0.447715 9 1 9V7ZM55.7164 8.70711C56.1069 8.31658 56.1069 7.68342 55.7164 7.29289L49.3524 0.928932C48.9619 0.538408 48.3287 0.538408 47.9382 0.928932C47.5477 1.31946 47.5477 1.95262 47.9382 2.34315L53.595 8L47.9382 13.6569C47.5477 14.0474 47.5477 14.6805 47.9382 15.0711C48.3287 15.4616 48.9619 15.4616 49.3524 15.0711L55.7164 8.70711ZM1 9H55.0093V7H1V9Z" fill="#56B855"/>
</svg>
