<svg width="17" height="17" viewBox="0 0 17 17" fill="none" xmlns="http://www.w3.org/2000/svg">
<path d="M15.0287 5.16301C15.0385 5.30766 15.0385 5.45232 15.0385 5.59831C15.0385 10.0466 11.7364 15.1769 5.69848 15.1769V15.1743C3.91485 15.1769 2.16827 14.653 0.666748 13.665C0.926102 13.697 1.18676 13.713 1.44806 13.7137C2.92618 13.715 4.36206 13.2064 5.52492 12.2698C4.12025 12.2425 2.88848 11.3032 2.45818 9.93198C2.95023 10.0293 3.45724 10.0093 3.9402 9.87399C2.40878 9.55668 1.30701 8.17678 1.30701 6.57424C1.30701 6.55957 1.30701 6.54557 1.30701 6.53157C1.76332 6.79222 2.27422 6.93687 2.79683 6.95287C1.35446 5.96428 0.909852 3.99643 1.78087 2.45788C3.44749 4.56105 5.90648 5.83962 8.54617 5.97495C8.28162 4.8057 8.64302 3.58046 9.49584 2.75852C10.818 1.48395 12.8973 1.54928 14.1402 2.90451C14.8753 2.75586 15.5799 2.47921 16.2247 2.08724C15.9797 2.86651 15.4668 3.52846 14.7817 3.9491C15.4324 3.87044 16.0681 3.69179 16.6667 3.41914C16.226 4.09642 15.6709 4.68638 15.0287 5.16301Z" fill="#1D9BF0"/>
</svg>
